#!OML:ASF E:\id_vita\Project 1\Capture day 1\Session 1\Female.ASF
:FULLY-SPECIFIED
:DEGREES
1021
root 16.9052 14.9922 -5.25459 -39.5386 -83.6346 100.877
lowerback 15.2193 -0.921348 -3.98336
upperback 4.21499 -1.83518 2.38739
thorax -3.84246 -0.951437 5.11986
lowerneck -7.12826 1.86402 -2.099
upperneck -31.8005 1.18013 0.792151
head -8.86387 -0.212986 0.730124
rclavicle -2.10712e-014 -8.34896e-015
rhumerus 12.6935 26.083 -89.3668
rradius 97.9636
rwrist -22.5797
rhand -31.1099 -14.2595
rfingers 7.12502
rthumb -4.38926 -44.194
lclavicle -2.10712e-014 -8.34896e-015
lhumerus 66.4576 -22.6156 74.8821
lradius 38.9218
lwrist 25.9193
lhand 2.34543 49.8871
lfingers 7.12502
lthumb 27.8349 77.8453
rfemur -99.357 -1.54169 59.7906
rtibia 40.3345
rfoot -5.2261 -15.6294
rtoes 14.7775
lfemur -68.0646 10.441 -36.9633
ltibia 61.9054
lfoot -18.4073 -11.4913
ltoes -10.2684
1022
root 16.9505 14.9829 -5.24778 -39.1467 -83.8364 100.236
lowerback 15.1124 -0.873832 -3.91687
upperback 4.21704 -1.75859 2.42879
thorax -3.79242 -0.916085 5.1084
lowerneck -7.09638 1.84543 -1.83482
upperneck -31.6092 1.15045 0.72577
head -8.79466 -0.242281 0.659395
rclavicle 8.34896e-015 -4.42296e-014
rhumerus 11.8726 26.0663 -89.6792
rradius 98.4746
rwrist -22.6716
rhand -31.0747 -14.6353
rfingers 7.12502
rthumb -4.35527 -44.5706
lclavicle 8.34896e-015 -4.42296e-014
lhumerus 66.3953 -22.9105 74.8025
lradius 38.8565
lwrist 26.2404
lhand 3.05256 50.3657
lfingers 7.12502
lthumb 28.5108 78.2125
rfemur -99.2641 -1.51102 60.0005
rtibia 40.412
rfoot -5.1686 -15.5719
rtoes 14.9303
lfemur -67.8011 10.5649 -36.9341
ltibia 61.9131
lfoot -19.0237 -10.1577
ltoes -12.7905
1023
root 17.0029 14.9745 -5.24362 -39.397 -84.0371 100.228
lowerback 15.0181 -0.782975 -3.97485
upperback 4.25772 -1.64521 2.49302
thorax -3.70773 -0.865001 5.18599
lowerneck -7.20989 1.82417 -1.92577
upperneck -31.3834 1.15413 0.813312
head -8.69406 -0.228663 0.702493
rclavicle -6.87795e-014 -9.48203e-014
rhumerus 11.2163 26.0396 -89.8141
rradius 98.871
rwrist -22.7564
rhand -31.04 -14.6173
rfingers 7.12502
rthumb -4.32178 -44.5532
lclavicle -6.87795e-014 -9.48203e-014
lhumerus 66.2691 -23.1921 74.8372
lradius 38.8468
lwrist 26.2459
lhand 3.62327 50.6509
lfingers 7.12502
lthumb 29.056 78.405
rfemur -99.1034 -1.40512 60.0229
rtibia 40.4302
rfoot -5.17402 -15.5741
rtoes 15.8014
lfemur -67.6606 10.7337 -36.9558
ltibia 62.0777
lfoot -19.5433 -8.77725
ltoes -15.1939
1024
root 17.0621 14.9702 -5.23645 -39.3883 -84.0808 99.9364
lowerback 14.9279 -0.727327 -4.0438
upperback 4.32836 -1.58167 2.52013
thorax -3.58887 -0.840137 5.23852
lowerneck -7.43696 1.80095 -2.01734
upperneck -31.127 1.1526 0.896865
head -8.56377 -0.218605 0.74462
rclavicle 3.29983e-014 -5.29761e-014
rhumerus 10.8258 25.935 -89.8318
rradius 99.0729
rwrist -22.899
rhand -31.0521 -14.8595
rfingers 7.12502
rthumb -4.33344 -44.7951
lclavicle 3.29983e-014 -5.29761e-014
lhumerus 66.1157 -23.5082 74.8329
lradius 38.8901
lwrist 26.0516
lhand 3.74924 50.5763
lfingers 7.12502
lthumb 29.1763 78.3096
rfemur -99.0634 -1.43282 59.9353
rtibia 40.4735
rfoot -5.18648 -15.5953
rtoes 16.9954
lfemur -67.5326 10.6677 -36.9578
ltibia 62.2932
lfoot -19.7862 -7.94881
ltoes -16.1136
1025
root 17.1225 14.958 -5.2233 -39.2273 -84.0515 99.4768
lowerback 14.8711 -0.714801 -4.07448
upperback 4.36313 -1.56932 2.52086
thorax -3.52201 -0.837389 5.25188
lowerneck -7.70236 1.74139 -1.91527
upperneck -30.7487 1.0921 0.944003
head -8.38044 -0.252782 0.74173
rclavicle -2.10712e-014 -1.17283e-014
rhumerus 10.2605 25.7533 -89.9891
rradius 99.3856
rwrist -23.0575
rhand -31.6038 -13.9562
rfingers 7.12502
rthumb -4.86616 -43.8803
lclavicle -2.10712e-014 -1.17283e-014
lhumerus 66.069 -23.8331 74.6269
lradius 38.9586
lwrist 26.1785
lhand 3.64001 50.6216
lfingers 7.12502
lthumb 29.072 78.373
rfemur -99.111 -1.52881 59.8681
rtibia 40.5383
rfoot -4.99906 -15.6257
rtoes 17.0485
lfemur -67.3387 10.4097 -36.869
ltibia 62.5089
lfoot -20.1095 -7.42456
ltoes -16.5527
1026
root 17.1794 14.9395 -5.20948 -40.4449 -84.0213 100.323
lowerback 14.9011 -0.686131 -4.19499
upperback 4.38444 -1.55435 2.46377
thorax -3.5155 -0.830952 5.25804
lowerneck -7.70411 1.6752 -1.91067
upperneck -30.5399 1.05808 1.1467
head -8.30462 -0.277609 0.80886
rclavicle 4.57205e-014 -1.38155e-014
rhumerus 9.43889 25.6393 -90.2749
rradius 99.8197
rwrist -23.0007
rhand -32.2921 -12.5284
rfingers 7.12502
rthumb -5.53071 -42.4362
lclavicle 4.57205e-014 -1.38155e-014
lhumerus 66.1163 -24.1314 74.3109
lradius 38.9391
lwrist 26.4338
lhand 3.57489 50.7593
lfingers 7.12502
lthumb 29.0098 78.5214
rfemur -99.0412 -1.60165 59.6605
rtibia 40.5887
rfoot -4.73422 -15.6745
rtoes 16.7455
lfemur -67.0355 10.2187 -36.8381
ltibia 62.6914
lfoot -20.6344 -6.85435
ltoes -16.7793
1027
root 17.2394 14.9259 -5.20012 -40.7947 -84.0375 100.391
lowerback 14.8828 -0.678666 -4.24406
upperback 4.34421 -1.55222 2.40493
thorax -3.54882 -0.827094 5.22323
lowerneck -7.49231 1.63002 -1.82332
upperneck -30.5297 1.03095 1.27782
head -8.3348 -0.305963 0.838645
rclavicle -2.22639e-014 -5.52621e-014
rhumerus 8.73308 25.619 -90.4859
rradius 100.091
rwrist -22.8727
rhand -32.7622 -12.0779
rfingers 7.12502
rthumb -5.98464 -41.9734
lclavicle -2.22639e-014 -5.52621e-014
lhumerus 66.1535 -24.4194 73.921
lradius 38.8696
lwrist 26.8027
lhand 3.62313 50.9613
lfingers 7.12502
lthumb 29.0558 78.7155
rfemur -99.014 -1.62808 59.6214
rtibia 40.6008
rfoot -4.65258 -15.6499
rtoes 17.1355
lfemur -66.8997 10.0057 -36.7174
ltibia 62.8544
lfoot -21.2343 -6.30579
ltoes -16.928
1028
root 17.3071 14.9132 -5.19466 -39.3525 -84.0631 98.802
lowerback 14.7817 -0.730026 -4.21443
upperback 4.26275 -1.60766 2.39746
thorax -3.57491 -0.849971 5.20587
lowerneck -7.49167 1.6057 -1.6592
upperneck -30.4006 1.00617 1.3018
head -8.28649 -0.33228 0.8174
rclavicle 1.59028e-015 -2.97183e-014
rhumerus 8.28825 25.6079 -90.6158
rradius 100.251
rwrist -22.9231
rhand -33.067 -12.1584
rfingers 7.12502
rthumb -6.27886 -42.0454
lclavicle 1.59028e-015 -2.97183e-014
lhumerus 65.981 -24.6532 73.7311
lradius 38.9647
lwrist 27.0363
lhand 3.66028 51.0838
lfingers 7.12502
lthumb 29.0913 78.8319
rfemur -99.1678 -1.61193 59.7767
rtibia 40.5906
rfoot -4.48377 -15.5693
rtoes 17.1034
lfemur -66.9729 9.66913 -36.4632
ltibia 63.0418
lfoot -21.7603 -5.75582
ltoes -17.4388
1029
root 17.3731 14.9001 -5.18618 -38.508 -84.0887 97.6974
lowerback 14.6172 -0.79319 -4.1248
upperback 4.33822 -1.67581 2.33479
thorax -3.40338 -0.890751 5.09123
lowerneck -7.65077 1.60321 -1.63641
upperneck -30.1649 1.04988 1.45979
head -8.17659 -0.318963 0.862319
rclavicle -1.47101e-014 -1.55052e-014
rhumerus 7.85604 25.5671 -90.8369
rradius 100.456
rwrist -22.9378
rhand -33.0524 -11.3665
rfingers 7.12502
rthumb -6.26478 -41.2538
lclavicle -1.47101e-014 -1.55052e-014
lhumerus 65.8114 -24.8447 73.5858
lradius 39.1425
lwrist 27.0454
lhand 3.93986 51.1214
lfingers 7.12502
lthumb 29.3583 78.823
rfemur -99.2212 -1.65682 59.8495
rtibia 40.5728
rfoot -4.15817 -15.5583
rtoes 16.5143
lfemur -66.8976 9.36072 -36.2157
ltibia 63.2585
lfoot -22.1897 -5.11327
ltoes -17.6792
1030
root 17.4366 14.888 -5.17709 -38.7757 -84.1003 97.583
lowerback 14.5577 -0.763341 -4.21107
upperback 4.45109 -1.65101 2.34662
thorax -3.25182 -0.887572 5.14429
lowerneck -7.81067 1.56548 -1.79707
upperneck -29.8759 1.06097 1.67295
head -8.04934 -0.302566 0.958205
rclavicle 4.25399e-014 4.45278e-014
rhumerus 7.33938 25.5878 -90.8614
rradius 100.676
rwrist -23.0753
rhand -33.1778 -9.69688
rfingers 7.12502
rthumb -6.3859 -39.5806
lclavicle 4.25399e-014 4.45278e-014
lhumerus 65.6591 -25.085 73.5821
lradius 39.2957
lwrist 27.0947
lhand 4.32824 51.1301
lfingers 7.12502
lthumb 29.729 78.7661
rfemur -99.1222 -1.75571 59.7912
rtibia 40.5702
rfoot -3.98527 -15.6561
rtoes 16.6342
lfemur -66.723 9.13941 -36.0485
ltibia 63.5265
lfoot -22.5748 -4.46101
ltoes -17.7275
1031
root 17.4988 14.8752 -5.17021 -37.8609 -84.0803 96.3761
lowerback 14.485 -0.746695 -4.27517
upperback 4.50675 -1.63568 2.39531
thorax -3.15197 -0.885483 5.22643
lowerneck -7.7677 1.51989 -1.86139
upperneck -29.8625 1.01447 1.74437
head -8.05139 -0.321878 0.995194
rclavicle 3.85642e-014 2.71341e-014
rhumerus 6.98684 25.6844 -90.7321
rradius 100.916
rwrist -23.551
rhand -33.7371 -9.44473
rfingers 7.12502
rthumb -6.9258 -39.3114
lclavicle 3.85642e-014 2.71341e-014
lhumerus 65.5884 -25.3274 73.6051
lradius 39.4243
lwrist 27.3123
lhand 4.89117 51.124
lfingers 7.12502
lthumb 30.2662 78.6627
rfemur -99.1675 -1.88242 59.9008
rtibia 40.6102
rfoot -3.97532 -15.579
rtoes 17.1542
lfemur -66.6848 8.82536 -35.8439
ltibia 63.8495
lfoot -22.9276 -3.83059
ltoes -18.4395
1032
root 17.5623 14.8576 -5.16038 -35.3561 -84.092 93.796
lowerback 14.2259 -0.828292 -4.09808
upperback 4.46085 -1.70509 2.38881
thorax -3.05855 -0.919427 5.12078
lowerneck -7.38521 1.53964 -1.7878
upperneck -30.0529 1.05462 1.77372
head -8.18236 -0.311774 0.992022
rclavicle -5.40694e-014 -4.31363e-014
rhumerus 6.54744 25.7585 -90.8085
rradius 101.118
rwrist -23.9197
rhand -34.054 -10.0877
rfingers 7.12502
rthumb -7.23169 -39.9442
lclavicle -5.40694e-014 -4.31363e-014
lhumerus 65.4411 -25.545 73.6057
lradius 39.4457
lwrist 27.5985
lhand 5.13886 51.2465
lfingers 7.12502
lthumb 30.5024 78.7416
rfemur -99.4733 -1.94066 60.3304
rtibia 40.6683
rfoot -3.94387 -15.2314
rtoes 17.2034
lfemur -66.8981 8.34627 -35.5313
ltibia 64.2203
lfoot -23.2094 -3.25143
ltoes -18.9502
